inDegrees=no
num_controls=7
num_derivatives=13
num_iterations=109
num_multipliers=7
num_parameters=0
num_slacks=7
num_states=26
objective=5.307266
objective_accelerations=0.584611
objective_balance=0.055537
objective_effort=0.554222
objective_height=4.020199
objective_ligament=0.092696
solver_duration=1183.124089
status=Solve_Succeeded
success=true
DataType=double
version=3
OpenSimVersion=4.4-2022-07-23-0e9fedc
endheader
time	/jointset/ground_pelvis/pelvis_tilt/value	/jointset/ground_pelvis/pelvis_tx/value	/jointset/ground_pelvis/pelvis_ty/value	/jointset/hip_l/hip_flexion_l/value	/jointset/hip_l/hip_adduction_l/value	/jointset/hip_l/hip_rotation_l/value	/jointset/back/lumbar_extension/value	/jointset/patellofemoral_l/patellar_flexion_l/value	/jointset/knee_l/knee_flexion_l/value	/jointset/knee_l/knee_adduction_l/value	/jointset/knee_l/knee_rotation_l/value	/jointset/ankle_l/ankle_angle_l/value	/jointset/subtalar_l/subtalar_angle_l/value	/jointset/ground_pelvis/pelvis_tilt/speed	/jointset/ground_pelvis/pelvis_tx/speed	/jointset/ground_pelvis/pelvis_ty/speed	/jointset/hip_l/hip_flexion_l/speed	/jointset/hip_l/hip_adduction_l/speed	/jointset/hip_l/hip_rotation_l/speed	/jointset/back/lumbar_extension/speed	/jointset/patellofemoral_l/patellar_flexion_l/speed	/jointset/knee_l/knee_flexion_l/speed	/jointset/knee_l/knee_adduction_l/speed	/jointset/knee_l/knee_rotation_l/speed	/jointset/ankle_l/ankle_angle_l/speed	/jointset/subtalar_l/subtalar_angle_l/speed	/forceset/tau_hip_flexion_l	/forceset/tau_hip_adduction_l	/forceset/tau_hip_rotation_l	/forceset/tau_knee_flexion_l	/forceset/tau_ankle_angle_l	/forceset/tau_subtalar_angle_l	/forceset/tau_lumbar_extension	lambda_cid13_p0	lambda_cid13_p1	lambda_cid13_p2	lambda_cid13_p3	lambda_cid13_p4	lambda_cid13_p5	lambda_cid14_p0	/jointset/ground_pelvis/pelvis_tilt/accel	/jointset/ground_pelvis/pelvis_tx/accel	/jointset/ground_pelvis/pelvis_ty/accel	/jointset/hip_l/hip_flexion_l/accel	/jointset/hip_l/hip_adduction_l/accel	/jointset/hip_l/hip_rotation_l/accel	/jointset/back/lumbar_extension/accel	/jointset/patellofemoral_l/patellar_flexion_l/accel	/jointset/knee_l/knee_flexion_l/accel	/jointset/knee_l/knee_adduction_l/accel	/jointset/knee_l/knee_rotation_l/accel	/jointset/ankle_l/ankle_angle_l/accel	/jointset/subtalar_l/subtalar_angle_l/accel	gamma_cid13_p0	gamma_cid13_p1	gamma_cid13_p2	gamma_cid13_p3	gamma_cid13_p4	gamma_cid13_p5	gamma_cid14_p0
1.5	0.01346701432326646	-0.001998927040264674	0.8263950162265203	0.7565934878392666	-0.3220078811001509	-0.09945547330910005	-0.8063403680086277	0.9347318042514942	0.9347318042515401	-0.0681569038504163	-0.1728514647629589	0.2365103919889684	0.0573320955945744	0.3015162617661086	0.1907188888140154	0.5490766153879614	-2.210725153940534	0.0716968315203082	-0.6940529367228057	0.8266522359237541	-2.401363359709127	-2.401363359709105	-0.2246997749870454	-0.003796113815084664	-0.6456713702967495	-0.1704128428381922	-0.1959269183101746	0.03294834864847355	-0.008771144720966965	-0.2605546588793767	0.04106004949452803	0.03481903053766575	0.2793858401681296	-28.0872934856355	-11.61510718369387	3.009255482431538	-8.567743857365825	-661.9864884126387	-67.05200058502936	-9.114924236354909	0.05398507142097289	0.7309606996398764	-0.7790992788639843	-0.8149595876458197	0.487761167672738	-0.6223921644016076	2.164377802649082	-1.403585314827043	-1.403585314827003	-0.1851762228627943	-0.02894602831183229	-0.6742132382162249	0.4780107750997651	6.549543348135487e-07	2.899152136473606e-07	-4.069624633182959e-06	-3.430433764750997e-07	7.576698369844787e-07	6.236798554502671e-07	5.215116376551525e-07
1.51	0.01648481420513136	-5.532238867059861e-05	0.8318456777158056	0.7344472955520311	-0.3212678249155517	-0.1064232494973802	-0.7979671451366509	0.9106507982490544	0.9106507982488349	-0.07041825335662436	-0.1728906508403917	0.2300206180766677	0.05565025146969242	0.3019967576562191	0.197984857383924	0.5409337402235433	-2.218226381400273	0.07631951974914825	-0.6994313586501071	0.8478820372703676	-2.414492801494232	-2.4144928014942	-0.2275737615295114	-0.004027282603211223	-0.6521562992615237	-0.1659136401448018	-0.1883620584304028	0.03187935659848427	-0.008700394703785216	-0.2555017482031721	0.04301213280280987	0.03453363634331727	0.2717837734896653	-27.13948838542333	-11.78314212808766	3.17999661840459	-8.7424009119879	-656.1549175831141	-67.11827131078026	-10.10383411289044	0.03810319770472666	0.7217675353936486	-0.8500129850541386	-0.6745811684431509	0.450865419270044	-0.4843893810576141	2.08573611596911	-1.215971829873907	-1.215971829872283	-0.3390804045242434	-0.01891461238956862	-0.6165465161764209	0.4426599102458884	6.693111518141273e-07	2.95027459819707e-07	-4.094753467857068e-06	-3.469447933053496e-07	7.855613018924254e-07	7.315204864219358e-07	5.208820334412241e-07
1.52	0.01950602331574257	0.001960412468563529	0.8372112841834809	0.7122347156214397	-0.3204812732949258	-0.1134425743397932	-0.7893849332881656	0.8864488281847938	0.886448828184495	-0.07270845683497944	-0.1729318910674317	0.2234698121165915	0.05401475635049825	0.3021981075426791	0.2051449299420258	0.5320656110662471	-2.224002682592132	0.08099591872928849	-0.704362667543995	0.8684500312292954	-2.425556172060199	-2.425556172060158	-0.2304705694554781	-0.004206943724375476	-0.6578777798490043	-0.1611430416999267	-0.1807971985506907	0.03081036454823478	-0.008629644684123399	-0.2504488375270127	0.04496421611100211	0.03424824214856179	0.2641817068112012	-26.18970550057188	-11.9506843218168	3.349705467669057	-8.975040100011242	-650.3204738486011	-67.27277765535217	-11.08478689045888	-0.001844129313660805	0.7097814972816353	-0.9241500774392422	-0.4699743340703118	0.4985033179319974	-0.5329695577192297	2.032016325109554	-0.9903710709999209	-0.9903710709999104	-0.1897404995638461	-0.01864449491972642	-0.5215235627536318	0.5322899253977016	6.878795887407801e-07	4.313101300492864e-07	-4.089927466304376e-06	-3.325182027088023e-07	8.208341573090041e-07	8.920556105121266e-07	5.290559176426756e-07
1.53	0.02252784981283934	0.004047128596640523	0.8424846815067842	0.6899729598166316	-0.3196478407731242	-0.1205094295937097	-0.780600699385201	0.8621465401498696	0.8621465401496921	-0.07502757830519734	-0.1729749628529966	0.2168655727572021	0.05242812637561663	0.3021142676337993	0.2121710410844282	0.5225000198131415	-2.228042935430032	0.08569417050292963	-0.7089276936579715	0.8882571530808333	-2.434540671678723	-2.434540671678698	-0.2333543921373637	-0.0043868985545482	-0.6628380203655727	-0.156143105921604	-0.1729633200203259	0.02943774367551045	-0.008466702054889901	-0.2458889155147045	0.04721001903452274	0.03377718861159101	0.2563370811137118	-25.17444222966418	-12.02896094005839	3.482220607963202	-9.121416201690987	-644.7087818075285	-67.36610665796101	-12.0527814671167	-0.01952776672709189	0.6948816498890785	-0.9896613090109011	-0.3251347382670008	0.4565355976719725	-0.4055844354851946	1.934120668043161	-0.7984861138121275	-0.7984861138140619	-0.3377696430492868	-0.0153513869633245	-0.4634210973341203	0.4901583488235531	7.109228718388864e-07	7.069613758396743e-07	-4.053274451260711e-06	-2.986181042212829e-07	8.639497401410044e-07	1.108578633540746e-06	5.46583508285468e-07
